<svg width="309" height="234" viewBox="0 0 309 234" fill="none" xmlns="http://www.w3.org/2000/svg">
<path fill-rule="evenodd" clip-rule="evenodd" d="M93.0128 233.038L124.187 176.133L149.288 162.723L129.975 166.391L151.236 117.451L138.514 83.125L177.597 113.325L185.219 140.947L170.892 137.738L186.537 148.855L187.683 155.159L206.823 207.365L171.752 197.68L209.23 217.164L216.049 233.611H216.221L309 0.145508C291.694 3.7558 272.095 6.62112 250.49 8.85606L214.33 111.606L179.144 13.0967C171.121 13.3259 163.041 13.4979 154.674 13.4979C146.308 13.4979 138.399 13.3259 130.376 13.2686L95.0185 111.721L58.801 8.79875C37.3684 6.62112 17.827 3.7558 0.520508 0.145508L92.3824 231.434L93.0128 233.038Z" fill="#AAFBB2"/>
</svg>
